<?xml version="1.0" encoding="UTF-8" standalone="no"?>
<svg
   version="1.1"
   width="48"
   height="48"
   id="svg6"
   sodipodi:docname="icon_green.svg"
   inkscape:version="1.4 (86a8ad7, 2024-10-11)"
   xmlns:inkscape="http://www.inkscape.org/namespaces/inkscape"
   xmlns:sodipodi="http://sodipodi.sourceforge.net/DTD/sodipodi-0.dtd"
   xmlns="http://www.w3.org/2000/svg"
   xmlns:svg="http://www.w3.org/2000/svg">
  <defs
     id="defs6" />
  <sodipodi:namedview
     id="namedview6"
     pagecolor="#505050"
     bordercolor="#eeeeee"
     borderopacity="1"
     inkscape:showpageshadow="0"
     inkscape:pageopacity="0"
     inkscape:pagecheckerboard="0"
     inkscape:deskcolor="#d1d1d1"
     showgrid="true"
     inkscape:zoom="8"
     inkscape:cx="1.625"
     inkscape:cy="14.4375"
     inkscape:window-width="1920"
     inkscape:window-height="1009"
     inkscape:window-x="-8"
     inkscape:window-y="-8"
     inkscape:window-maximized="1"
     inkscape:current-layer="svg6">
    <inkscape:grid
       id="grid6"
       units="px"
       originx="0"
       originy="0"
       spacingx="1"
       spacingy="1"
       empcolor="#0099e5"
       empopacity="0.30196078"
       color="#0099e5"
       opacity="0.14901961"
       empspacing="5"
       enabled="true"
       visible="true" />
  </sodipodi:namedview>
  <path
     d="M0 0 C0.98178223 -0.00430527 0.98178223 -0.00430527 1.98339844 -0.00869751 C3.36524319 -0.01073618 4.74711693 -0.00521996 6.12890625 0.00732422 C8.2428445 0.02338314 10.35487113 0.00747149 12.46875 -0.01171875 C13.81250422 -0.00973628 15.15625724 -0.00589252 16.5 0 C17.72203125 0.00338379 18.9440625 0.00676758 20.203125 0.01025391 C23.25 0.3984375 23.25 0.3984375 25.14697266 1.50146484 C26.82082782 4.38014006 26.6392752 6.83953877 26.6484375 10.1484375 C26.65130768 10.80295898 26.65417786 11.45748047 26.65713501 12.13183594 C26.65917368 13.51368069 26.65365746 14.89555443 26.64111328 16.27734375 C26.62505436 18.391282 26.64096601 20.50330863 26.66015625 22.6171875 C26.65817378 23.96094172 26.65433002 25.30469474 26.6484375 26.6484375 C26.64505371 27.87046875 26.64166992 29.0925 26.63818359 30.3515625 C26.25 33.3984375 26.25 33.3984375 25.14697266 35.29541016 C22.26829744 36.96926532 19.80889873 36.7877127 16.5 36.796875 C15.84547852 36.79974518 15.19095703 36.80261536 14.51660156 36.80557251 C13.13475681 36.80761118 11.75288307 36.80209496 10.37109375 36.78955078 C8.2571555 36.77349186 6.14512887 36.78940351 4.03125 36.80859375 C2.68749578 36.80661128 1.34374276 36.80276752 0 36.796875 C-1.22203125 36.79349121 -2.4440625 36.79010742 -3.703125 36.78662109 C-6.75 36.3984375 -6.75 36.3984375 -8.64697266 35.29541016 C-10.32082782 32.41673494 -10.1392752 29.95733623 -10.1484375 26.6484375 C-10.15130768 25.99391602 -10.15417786 25.33939453 -10.15713501 24.66503906 C-10.15917368 23.28319431 -10.15365746 21.90132057 -10.14111328 20.51953125 C-10.12505436 18.405593 -10.14096601 16.29356637 -10.16015625 14.1796875 C-10.15817378 12.83593328 -10.15433002 11.49218026 -10.1484375 10.1484375 C-10.14505371 8.92640625 -10.14166992 7.704375 -10.13818359 6.4453125 C-9.75 3.3984375 -9.75 3.3984375 -8.64697266 1.50146484 C-5.76829744 -0.17239032 -3.30889873 0.0091623 0 0 Z M-5.75 4.3984375 C-6.08 5.7184375 -6.41 7.0384375 -6.75 8.3984375 C3.15 8.3984375 13.05 8.3984375 23.25 8.3984375 C22.92 7.0784375 22.59 5.7584375 22.25 4.3984375 C19.29086588 3.41205946 17.33601102 3.2695498 14.25 3.265625 C13.280625 3.26433594 12.31125 3.26304688 11.3125 3.26171875 C10.301875 3.26558594 9.29125 3.26945313 8.25 3.2734375 C6.7340625 3.26763672 6.7340625 3.26763672 5.1875 3.26171875 C4.218125 3.26300781 3.24875 3.26429687 2.25 3.265625 C1.363125 3.26675293 0.47625 3.26788086 -0.4375 3.26904297 C-2.91001285 3.3058119 -2.91001285 3.3058119 -5.75 4.3984375 Z M-6.75 11.3984375 C-6.770625 14.3065625 -6.79125 17.2146875 -6.8125 20.2109375 C-6.821604 21.12335205 -6.83070801 22.0357666 -6.84008789 22.97583008 C-6.84258545 23.69923584 -6.84508301 24.4226416 -6.84765625 25.16796875 C-6.85289307 25.90635986 -6.85812988 26.64475098 -6.86352539 27.40551758 C-6.82523213 29.60901159 -6.82523213 29.60901159 -5.75 32.3984375 C-2.79086588 33.38481554 -0.83601102 33.5273252 2.25 33.53125 C3.219375 33.53253906 4.18875 33.53382812 5.1875 33.53515625 C6.198125 33.53128906 7.20875 33.52742188 8.25 33.5234375 C9.7659375 33.52923828 9.7659375 33.52923828 11.3125 33.53515625 C12.281875 33.53386719 13.25125 33.53257813 14.25 33.53125 C15.136875 33.53012207 16.02375 33.52899414 16.9375 33.52783203 C19.41001285 33.4910631 19.41001285 33.4910631 22.25 32.3984375 C23.17188461 29.63278368 23.36785222 28.01560048 23.34765625 25.16796875 C23.34515869 24.44456299 23.34266113 23.72115723 23.34008789 22.97583008 C23.33098389 22.06341553 23.32187988 21.15100098 23.3125 20.2109375 C23.2815625 15.84875 23.2815625 15.84875 23.25 11.3984375 C13.35 11.3984375 3.45 11.3984375 -6.75 11.3984375 Z "
     fill="#000000"
     transform="translate(15.75,5.6015625)"
     id="path1"
     style="fill:#aade87" />
  <path
     d="m 21,30 h 6 v 5 h -6 z"
     fill="#000000"
     id="path2"
     sodipodi:nodetypes="ccccc"
     style="fill:#aade87" />
  <path
     d="M -1,0 H 5 V 5 H -1 Z"
     fill="#000000"
     transform="translate(22,21)"
     id="path3"
     sodipodi:nodetypes="ccccc"
     style="fill:#aade87" />
  <path
     d="M0 0 C1.65 0 3.3 0 5 0 C5 1.65 5 3.3 5 5 C3.35 5 1.7 5 0 5 C0 3.35 0 1.7 0 0 Z "
     fill="#000000"
     transform="translate(13,30)"
     id="path4"
     style="fill:#aade87" />
  <path
     d="M0 0 C1.65 0 3.3 0 5 0 C5 1.65 5 3.3 5 5 C3.35 5 1.7 5 0 5 C0 3.35 0 1.7 0 0 Z "
     fill="#000000"
     transform="translate(30,21)"
     id="path5"
     style="fill:#aade87" />
  <path
     d="M0 0 C1.65 0 3.3 0 5 0 C5 1.65 5 3.3 5 5 C3.35 5 1.7 5 0 5 C0 3.35 0 1.7 0 0 Z "
     fill="#000000"
     transform="translate(13,21)"
     id="path6"
     style="fill:#aade87" />
</svg>
